<svg xmlns="http://www.w3.org/2000/svg" xmlns:xlink="http://www.w3.org/1999/xlink" width="500" zoomAndPan="magnify" viewBox="0 0 375 374.999991" height="500" preserveAspectRatio="xMidYMid meet" version="1.0"><defs><clipPath id="1612f5404f"><path d="M 125 105.90625 L 375 105.90625 L 375 303.15625 L 125 303.15625 Z M 125 105.90625 " clip-rule="nonzero"/></clipPath><clipPath id="53ebdc48ac"><path d="M 0 71.769531 L 243 71.769531 L 243 263.019531 L 0 263.019531 Z M 0 71.769531 " clip-rule="nonzero"/></clipPath><clipPath id="b01062cfb6"><path d="M 0 1.027344 L 242.964844 1.027344 L 242.964844 192.019531 L 0 192.019531 Z M 0 1.027344 " clip-rule="nonzero"/></clipPath><clipPath id="21c593d26f"><rect x="0" width="243" y="0" height="193"/></clipPath></defs><g clip-path="url(#1612f5404f)"><path fill="#10b981" d="M 210.949219 303.226562 L 125.460938 217.734375 L 159.527344 183.660156 L 210.949219 235.078125 L 340.128906 105.90625 L 374.195312 139.96875 Z M 210.949219 303.226562 " fill-opacity="1" fill-rule="nonzero"/></g><g clip-path="url(#53ebdc48ac)"><g transform="matrix(1, 0, 0, 1, 0, 71)"><g clip-path="url(#21c593d26f)"><g clip-path="url(#b01062cfb6)"><path fill="#ffffff" d="M 159.21875 0.769531 L 242.1875 83.742188 L 209.125 116.8125 L 159.21875 66.90625 L 33.84375 192.277344 L 0.777344 159.21875 Z M 159.21875 0.769531 " fill-opacity="1" fill-rule="nonzero"/></g></g></g></g></svg>